<svg width="85" height="85" viewBox="0 0 85 85" fill="none" xmlns="http://www.w3.org/2000/svg">
<path d="M4.5 40C4.5 32.0887 6.84596 24.3552 11.2412 17.7772C15.6365 11.1992 21.8836 6.07232 29.1927 3.04482C36.5017 0.017312 44.5444 -0.77482 52.3036 0.76859C60.0629 2.312 67.1902 6.12163 72.7843 11.7157C78.3784 17.3098 82.188 24.4372 83.7314 32.1964C85.2748 39.9556 84.4827 47.9983 81.4552 55.3073C78.4277 62.6164 73.3008 68.8635 66.7228 73.2588C60.1448 77.654 52.4112 80 44.5 80L44.5 66.7554C49.7917 66.7554 54.9646 65.1862 59.3645 62.2463C63.7644 59.3064 67.1937 55.1278 69.2188 50.2388C71.2438 45.3499 71.7737 39.9703 70.7413 34.7803C69.7089 29.5903 67.1607 24.8229 63.4189 21.0811C59.6771 17.3393 54.9098 14.7911 49.7197 13.7587C44.5297 12.7263 39.1501 13.2562 34.2612 15.2812C29.3723 17.3063 25.1936 20.7356 22.2537 25.1355C19.3138 29.5354 17.7446 34.7083 17.7446 40H4.5Z" fill="#C0FFD2"/>
<path d="M17.5 40L23 48C19.6667 49.1667 12.7 50.9 11.5 44.5C11.3061 43.4656 11.2208 42.8408 11.1869 42.5262C11.2332 44.0331 10.8152 51.6051 0 48L4.49998 40H17.5Z" fill="#C0FFD2"/>
<path d="M38 60.5L44.5 67V80L38 85C30 77 36 73.3333 40 72.5C30.4 70.1 34.6667 63.5 38 60.5Z" fill="#C0FFD2"/>
</svg>
