<svg width="100" height="100" viewBox="0 0 100 100" fill="none" xmlns="http://www.w3.org/2000/svg">
<g clip-path="url(#clip0)">
<path d="M16.6679 90.9681C35.7804 92.5514 28.9346 72.2472 46.6179 72.0597L54.2762 78.4514C56.1846 101.526 27.9637 106.672 16.6679 90.9681ZM75.2721 61.3222C81.2179 51.9931 99.6346 20.7014 99.6346 20.7014C101.101 18.1056 97.8429 15.3972 95.5679 17.3139C95.5679 17.3139 68.1846 41.1222 60.1054 48.6681C53.7221 54.6347 53.6929 57.3597 51.6262 67.1972L58.6262 73.0306C67.9054 69.2181 70.5762 68.7014 75.2721 61.3222V61.3222ZM25.2762 77.4722C28.0512 72.7472 32.5596 65.0681 43.8054 63.8806C45.6137 55.1847 46.3346 50.1306 54.4179 42.5806C60.1387 37.2389 74.9929 24.2097 83.6721 16.6264C79.5054 7.4264 66.4179 -0.136097 49.5971 0.00140335C21.9971 0.23057 -0.21959 22.7722 0.00124305 50.3847C0.0970764 62.5139 4.50541 73.5972 11.7512 82.1972C18.4929 83.9847 21.6512 83.6472 25.2762 77.4722V77.4722ZM54.2429 11.4931C58.8346 11.4681 62.5971 15.1639 62.6429 19.7556C62.6596 24.3514 58.9679 28.1264 54.3679 28.1556C49.7637 28.1931 46.0012 24.4889 45.9762 19.8889C45.9221 15.2806 49.6262 11.5306 54.2429 11.4931V11.4931ZM29.2554 19.8306C33.8471 19.7889 37.6221 23.4847 37.6387 28.0931C37.6887 32.7014 33.9721 36.4472 29.3887 36.4931C24.7804 36.5222 21.0179 32.8222 20.9887 28.2097C20.9512 23.6139 24.6429 19.8597 29.2554 19.8306V19.8306ZM20.9096 44.8222C25.5179 44.7931 29.2846 48.4972 29.3096 53.0931C29.3512 57.6931 25.6429 61.4597 21.0346 61.4889C16.4304 61.5222 12.6804 57.8222 12.6554 53.2181C12.6096 48.6139 16.3179 44.8681 20.9096 44.8222ZM62.7054 80.3722C62.7929 89.7014 59.0304 95.8639 55.6971 99.4847L55.5054 99.6681C77.4012 97.2056 93.2637 81.7347 81.6137 66.7972C75.8929 75.3264 71.0554 76.9722 62.7054 80.3722V80.3722Z" fill="#FF4E4E"/>
</g>
<defs>
<clipPath id="clip0">
<rect width="100" height="100" fill="white"/>
</clipPath>
</defs>
</svg>
