<svg width="103" height="103" viewBox="0 0 103 103" fill="none" xmlns="http://www.w3.org/2000/svg">
<path d="M94.4167 13.7333C94.4167 10.888 92.112 8.58334 89.2667 8.58334H13.7333C10.888 8.58334 8.58333 10.888 8.58333 13.7333V64.375H94.4167V13.7333V13.7333ZM85.8333 55.7917H17.1667V17.1667H85.8333V55.7917ZM94.4167 68.6667H8.58333C7.73787 70.2632 0 88.3311 0 90.1164C0 92.3567 1.79392 94.4167 4.30025 94.4167H98.6997C101.206 94.4167 103 92.3567 103 90.1164C103 88.3311 95.2621 70.2632 94.4167 68.6667V68.6667ZM41.9339 90.125L43.9381 85.8333H59.0576L61.0618 90.125H41.9339Z" fill="#2596FF"/>
</svg>
