<svg width="115" height="115" viewBox="0 0 115 115" fill="none" xmlns="http://www.w3.org/2000/svg">
<path d="M62.9817 39.1527C62.814 38.8365 64.6204 38.664 64.9415 38.664C65.296 38.7071 64.0023 40.8298 62.9817 39.1527ZM52.67 24.4327L53.1875 24.2842C53.4942 24.5477 52.8425 24.7394 52.9431 24.9358C53.3552 25.6785 53.0437 26.1242 52.9815 26.5267C52.9144 26.934 52.4831 26.7567 52.2675 26.9723C52.0135 27.2885 53.5037 27.3317 53.5229 27.3796C53.5756 27.5377 51.726 27.806 52.0662 28.199C52.5262 28.8506 56.0146 27.2646 55.4587 27.3556C56.5369 26.8142 55.5977 26.7567 54.994 26.4452C54.7879 25.415 54.6154 23.8242 53.9733 23.1869L54.395 22.6981C53.4079 21.2654 52.67 24.4327 52.67 24.4327V24.4327ZM115 57.5C115 89.2544 89.2544 115 57.5 115C25.7408 115 0 89.2544 0 57.5C0 25.7456 25.7408 0 57.5 0C89.2544 0 115 25.7456 115 57.5ZM75.1812 31.764C75.1525 31.0644 74.2708 30.4031 73.3508 31.6154C72.704 32.4492 72.819 33.719 72.4692 34.2844C71.9708 35.1229 75.186 35.9087 75.186 35.1181C75.3058 33.7908 78.6935 34.8162 79.3548 34.9983C80.5431 35.329 82.4358 33.9154 80.3658 33.1727C78.6648 32.5498 77.7687 31.8837 77.6154 30.6667C77.6154 30.6667 78.5163 29.8233 78.1233 29.8712C77.0788 30.0006 75.1812 33.6375 75.1812 31.764V31.764ZM105.35 57.5C105.35 52.5406 104.501 47.5333 103.639 44.8883C103.361 44.0546 102.733 43.3933 101.919 43.0771C100.692 42.5979 95.5123 45.9377 94.7312 44.2942C94.2185 43.1969 93.1787 44.9937 91.9904 44.3325C91.4154 44.0162 89.815 41.8648 89.0915 42.1283C87.6108 42.6602 91.3627 46.7475 92.3881 47.2842C93.3512 46.5558 96.4706 45.056 97.1415 47.1021C98.4256 50.9546 93.61 55.176 91.1471 57.3994C87.4671 60.7248 88.1571 55.2479 85.651 53.3169C84.3333 52.3058 84.3477 50.1544 83.0156 49.4117C82.4215 49.0762 79.695 45.9377 79.719 45.516L79.6375 46.3115C79.1871 46.6517 78.2287 45.0273 78.1281 44.7733C78.1281 46.1869 80.4281 48.439 81.19 49.5698C82.4885 51.5104 83.1833 54.3375 84.7742 55.9235C85.6271 56.7765 88.8854 60.3031 89.7335 60.2265C90.6583 60.145 93.5812 58.0319 94.0987 58.1517C97.1846 58.88 86.8346 73.509 85.8523 75.3202C85.0425 76.8392 86.5135 80.5958 86.3938 82.3927C86.2548 84.4675 84.6208 85.1383 83.0731 86.2692C81.4152 87.4815 81.8033 89.839 80.409 90.7015C77.9317 92.2252 76.1492 97.1846 72.6321 97.1606C71.5971 97.1558 67.1696 98.8856 66.5898 97.1942C66.1394 95.9675 65.5356 95.0379 64.8983 93.8256C64.2754 92.6373 64.8265 91.4058 64.0694 90.3565C63.5471 89.6281 61.7933 87.975 61.6352 87.1125C61.6256 86.3698 62.1958 84.1129 62.9769 83.72C64.0742 83.1594 63.1877 81.5254 63.0535 80.5767C62.8235 78.8804 61.7742 77.4812 60.514 76.499C58.65 75.0662 59.6131 73.9258 60.0492 71.8798C60.0492 70.9023 59.455 69.6181 58.1421 70.0015C55.4396 70.7873 56.259 67.8931 54.2896 68.0225C52.8712 68.1231 51.7117 69.024 50.394 69.4217C48.736 69.92 47.0398 69.0287 45.401 68.8227C38.6592 67.9698 36.4598 60.2648 38.2183 54.7065C38.3956 53.796 37.6721 52.1094 37.9883 51.405C38.7454 49.7183 40.2883 47.8256 41.6396 46.5462C42.3967 45.8275 43.3694 46.0096 44.2606 45.449C45.6358 44.5817 45.655 42.7992 47.0015 41.7067C48.9181 40.1494 51.5344 40.1829 54.0356 39.8475C55.3677 39.6702 60.4373 38.5729 61.2375 39.56C61.2375 39.7421 62.1527 42.4542 61.1465 42.3008C63.2212 42.411 66.1777 45.8898 68.1471 45.0752C69.1581 44.6535 68.7892 41.5485 70.864 43.0483C72.1194 43.9492 77.7448 44.3517 78.914 43.379C79.6327 42.7848 80.0352 38.9227 79.1631 38.4867C79.719 39.0377 76.2354 39.0808 75.9096 38.9562C75.3346 38.7454 74.7979 39.5025 73.8731 39.076C74.429 39.3396 70.7777 37.3798 72.8285 35.88C71.9708 36.5077 71.1706 35.7027 70.2458 36.3927C69.6085 36.9102 70.5429 37.2552 69.6325 37.7056C68.1854 38.4387 67.0929 35.19 66.5467 34.821C65.9908 34.4569 61.6879 31.4381 62.8571 33.4075L66.6377 37.169C66.4508 37.2887 65.6458 35.7985 65.6458 36.8862C65.8998 36.2394 65.7417 39.6606 65.1475 38.549C64.884 38.1225 65.5787 37.8829 65.1762 37.2648C65.1762 36.8575 64.0837 36.4598 63.8729 36.1819C63.274 35.4392 61.6831 33.8004 60.8206 33.4075C60.581 33.2973 57.1598 33.8244 56.8723 33.9346C56.5369 34.4042 56.2494 34.8977 56.0146 35.4248C55.3054 35.6883 54.6394 36.0285 54.0069 36.4502L53.2546 38.1417C52.9287 38.434 49.589 39.536 49.5698 39.5792C49.7087 39.2198 47.2362 38.7598 47.3992 38.041C47.5812 37.2504 48.4198 34.7827 48.2042 33.8819C47.9742 32.9379 53.3504 35.2427 53.6954 32.7558C53.8344 31.6777 53.9158 30.4223 52.1956 30.2402C52.5215 30.2785 55.5258 29.0615 56.0242 28.5152C56.7237 27.7102 58.329 26.3973 59.4933 26.3973C60.8542 26.3973 60.5619 24.4183 61.1896 23.4504C61.8173 23.7044 60.8542 25.2521 61.6065 25.8798C61.5585 25.3862 63.7387 26.1529 63.9496 26.0379C64.4479 25.7792 67.2271 25.9325 66.7958 24.6292C66.3167 23.3019 67.0402 23.6948 67.6631 23.4169C67.5577 23.46 69.2923 20.4508 69.5894 21.4379C69.3833 20.4221 67.5721 21.7925 66.9396 21.7398C65.4781 21.6248 66.0962 19.2481 66.6473 18.5533C67.0737 18.0023 65.4829 17.3267 65.4637 18.3808C65.435 19.9573 63.9687 21.3852 64.309 23.4792C64.8265 26.6369 60.7871 22.7173 60.4325 22.9329C59.0908 23.7475 57.9935 21.9075 58.6883 20.8054C59.3975 19.6794 61.1081 19.7321 61.8125 18.5246C62.3108 17.6717 62.8906 16.6798 63.6573 16.0329C66.2208 13.8815 66.93 15.6017 69.484 15.8365C71.9804 16.0665 70.3273 16.4306 69.9823 17.389C69.6517 18.2994 71.3527 18.6252 71.9421 17.8633C72.2775 17.4225 73.0394 16.3156 73.37 15.4962C73.7965 14.4325 77.6873 14.5523 74.9704 12.9279C73.1783 11.8594 65.3679 9.70792 60.1354 9.70792C59.0046 9.70792 58.214 10.9681 57.3515 11.6821C55.6456 13.0956 51.2756 15.87 48.8462 15.0267C46.3594 14.169 41.0358 18.1892 40.1829 18.2179C39.8715 18.2371 40.2021 15.18 41.8983 14.9548C41.1652 15.065 47.8735 11.5671 47.6915 10.8388C47.471 9.97625 34.2796 14.7775 34.869 15.7406C35.1517 16.1815 36.3017 16.1815 34.7923 17.1494C33.9298 17.6717 33.0098 20.9875 32.2 20.9875C29.7802 22.0465 29.6269 18.9031 26.934 22.9473L22.6502 24.6723C16.2869 31.4333 11.8833 39.996 10.2877 49.5075C10.2254 49.886 11.8881 50.5904 12.1037 50.8492C12.6404 51.4913 12.6404 54.2608 12.904 55.1665C13.5652 57.4569 15.1992 58.7315 16.4498 60.8158C17.1877 62.0569 18.4144 65.1954 18.0262 66.4987C18.5437 65.6458 23.1533 70.404 23.9967 71.3958C25.9804 73.7294 27.509 76.5565 24.289 78.866C23.2492 79.6135 25.8702 84.2758 24.519 85.421L22.7892 85.8667C21.0833 86.916 21.8548 89.4892 22.8898 90.5721C31.601 99.681 43.8773 105.364 57.4856 105.364C83.9212 105.364 105.35 83.9356 105.35 57.5V57.5ZM50.2119 27.0394C50.8108 26.7758 51.6158 26.7854 51.7021 25.9852C51.774 25.276 51.9129 25.7648 52.0854 25.506C52.2531 25.2521 51.7644 24.8448 51.5583 24.8065C51.2517 24.7394 51.0408 25.1371 50.8444 25.3048L50.4994 25.3958L50.1735 25.8127L50.2119 26.0427L49.795 26.5506C49.3877 26.9531 49.8046 27.2167 50.2119 27.0394V27.0394Z" fill="#4558FF"/>
</svg>
